<svg width="170" height="156" viewBox="0 0 170 156" fill="none" xmlns="http://www.w3.org/2000/svg">
<mask id="mask0_14_574" style="mask-type:luminance" maskUnits="userSpaceOnUse" x="28" y="33" width="114" height="119">
<path d="M28.2195 33.3851H141.761V151.526H28.2195V33.3851Z" fill="white"/>
</mask>
<g mask="url(#mask0_14_574)">
<path d="M84.9309 151.52L38.5983 139.712L28.2739 33.3894L141.726 33.3878L131.395 139.694L84.9331 151.518L84.9309 151.52Z" fill="#0277BD"/>
</g>
<path d="M122.547 132.927L131.38 42.084L85.0027 42.0828V142.48L122.547 132.926V132.927Z" fill="#039BE5"/>
<path d="M51.9451 81.5168L53.2179 94.5538H85.0025V81.5168H51.9451Z" fill="#EBEBEB"/>
<path d="M49.3868 55.1209L50.6777 68.1623H85.0027V55.1209H49.3868Z" fill="#EBEBEB"/>
<path d="M85.0025 115.381L84.9405 115.398L69.1221 111.474L68.1105 101.074H53.8522L55.8421 121.551L84.9361 128.965L85.0025 128.949V115.381Z" fill="#EBEBEB"/>
<path d="M117.971 81.5178L120.533 55.1209H84.9539V68.1623H104.967L103.677 81.5178H84.9539V94.5548H102.445L100.795 111.467L84.9539 115.395V128.958L114.071 121.552L114.284 119.347L117.624 85.0168L117.971 81.5178Z" fill="white"/>
</svg>