<svg width="148" height="156" viewBox="0 0 148 156" fill="none" xmlns="http://www.w3.org/2000/svg">
<mask id="mask0_14_561" style="mask-type:luminance" maskUnits="userSpaceOnUse" x="23" y="32" width="102" height="121">
<path d="M23.9755 32.7598H124.078V152.357H23.9755V32.7598Z" fill="white"/>
</mask>
<g mask="url(#mask0_14_561)">
<path d="M124.051 32.8409L114.938 140.387L73.975 152.35L33.1255 140.404L24.0227 32.8409L124.049 32.8393H124.053L124.051 32.8409Z" fill="#E44D26"/>
</g>
<path d="M74.0381 143.208L107.14 133.542L114.927 41.6385L74.0381 41.6373V143.208Z" fill="#F16529"/>
<path d="M56.3227 68.0222H74.038V54.8289H42.637L42.9364 58.3689L46.0144 94.723H74.038V81.5337H57.467L56.3227 68.0222Z" fill="#EBEBEB"/>
<path d="M59.1453 101.319H46.5742L48.3286 122.034L73.9792 129.536L74.0382 129.519V115.793L73.9834 115.81L60.0368 111.84L59.1453 101.319Z" fill="#EBEBEB"/>
<path d="M73.9951 94.7218H89.4167L87.9618 111.831L73.9951 115.805V129.527L99.6661 122.034L99.8546 119.803L102.799 85.0725L103.105 81.5325H73.9951V94.7218Z" fill="white"/>
<path d="M73.9951 67.9889V68.0222H104.242L104.493 65.0562L105.065 58.3689L105.364 54.8289H73.9951V67.9889Z" fill="white"/>
</svg>