<svg width="95" height="96" viewBox="0 0 95 96" fill="none" xmlns="http://www.w3.org/2000/svg">
<path d="M1.78516 0.5H93.215V95.2621H1.78516V0.5Z" fill="#F7DF1E"/>
<path d="M25.8241 79.6898L32.821 75.3011C34.1708 77.7816 35.3987 79.8804 38.3441 79.8804C41.1674 79.8804 42.9473 78.7357 42.9473 74.2834V44.0046H51.5394V74.4093C51.5394 83.6328 46.323 87.8311 38.7124 87.8311C31.839 87.8311 27.8492 84.1415 25.824 79.689" fill="#1C1C1C"/>
<path d="M56.2083 78.7359L63.2042 74.5376C65.0459 77.6549 67.4395 79.9446 71.674 79.9446C75.2341 79.9446 77.5043 78.0998 77.5043 75.5554C77.5043 72.5021 75.1723 71.4206 71.2443 69.6401L69.0968 68.6853C62.8977 65.9505 58.7856 62.5156 58.7856 55.2639C58.7856 48.5849 63.6953 43.4958 71.3673 43.4958C76.8296 43.4958 80.7575 45.468 83.5803 50.6205L76.8906 55.0729C75.4175 52.3379 73.8223 51.2567 71.3675 51.2567C68.8511 51.2567 67.2553 52.9105 67.2553 55.0729C67.2553 57.7446 68.8511 58.8262 72.5331 60.4802L74.681 61.4343C81.9845 64.6786 86.0967 67.986 86.0967 75.4281C86.0967 83.4435 80.0208 87.8321 71.8583 87.8321C63.8798 87.8321 58.7243 83.8885 56.2084 78.7359" fill="#1C1C1C"/>
</svg>