<svg width="65" height="51" viewBox="0 0 45 44" fill="none" xmlns="http://www.w3.org/2000/svg">
<ellipse cx="22.5" cy="22" rx="22.5" ry="20.5" fill="url(#paint0_linear_81_105)"/>
<path d="M22.6475 23.2842L29.0195 13.5186C29.7113 13.5592 30.3664 13.6121 30.9849 13.6772C31.6034 13.7342 32.1445 13.7952 32.6084 13.8604C33.1536 13.9336 33.6582 14.0068 34.1221 14.0801V16.8877L31.8516 16.375V28.9727L34.1221 28.46V31.4873C33.2594 31.6582 32.409 31.7843 31.5708 31.8657C30.7326 31.9471 29.8822 32.0081 29.0195 32.0488V18.6455L22.6475 28.5332L16.1777 18.6211V32.0488C15.486 32.0081 14.8309 31.9593 14.2124 31.9023C13.5939 31.8454 13.0527 31.7843 12.5889 31.7192C12.0436 31.646 11.5391 31.5687 11.0752 31.4873V28.46L13.3457 28.9727V16.3506L11.0752 16.8633V14.0557C11.5391 13.9824 12.0436 13.9092 12.5889 13.8359C13.0527 13.7708 13.5939 13.7098 14.2124 13.6528C14.8309 13.5877 15.486 13.5348 16.1777 13.4941L22.6475 23.2842Z" fill="#1C1C1C" fill-opacity="0.8"/>
<defs>
<linearGradient id="paint0_linear_81_105" x1="22.5" y1="1.5" x2="22.5" y2="42.5" gradientUnits="userSpaceOnUse">
<stop stop-color="#B8D4D8"/>
<stop offset="0.651042" stop-color="#6E73FA" stop-opacity="0.817708"/>
<stop offset="1" stop-color="#B8D4D8"/>
</linearGradient>
</defs>
</svg>
